<svg width="39" height="40" viewBox="0 0 39 40" fill="none" xmlns="http://www.w3.org/2000/svg">
<path d="M21.3744 18.0856C21.3744 20.4399 19.4654 22.3488 17.1112 22.3488H10.7165C9.53938 22.3488 8.58491 23.3033 8.58491 24.4804V35.1383C8.58491 37.4925 6.67596 39.4014 4.32175 39.4014C1.96754 39.4014 0.0585938 37.4925 0.0585938 35.1383V18.0856C0.0585938 15.7314 1.96754 13.8225 4.32175 13.8225H17.1112C19.4654 13.8225 21.3744 15.7314 21.3744 18.0856Z" fill="#FF6B00" stroke="#FF6B00" stroke-miterlimit="10"/>
<path d="M38.427 7.42766V30.8751C38.427 35.5835 34.6091 39.4014 29.9007 39.4014H17.1112C14.757 39.4014 12.8481 37.4925 12.8481 35.1383C12.8481 32.784 14.757 30.8751 17.1112 30.8751H26.0023C26.0023 30.8751 26.0046 30.8644 26.0082 30.8585C28.0664 30.6821 29.7077 29.0408 29.8841 26.9826C29.89 26.9791 29.896 26.9779 29.9007 26.9767V13.4577C29.9007 13.4577 29.89 13.4554 29.8841 13.4518C29.7077 11.3937 28.0664 9.75226 26.0082 9.57586C26.0046 9.56996 26.0035 9.56406 26.0023 9.55926H4.32175C1.96754 9.55926 0.0585938 7.65036 0.0585938 5.29612C0.0585938 2.94191 1.96754 1.03296 4.32175 1.03296H32.0323C32.7795 1.03296 33.4971 1.16085 34.1639 1.39769C35.9804 2.03954 37.4204 3.47954 38.0623 5.29612C38.2991 5.96283 38.427 6.68046 38.427 7.42766Z" fill="#FF6B00" stroke="#FF6B00" stroke-miterlimit="10"/>
</svg>
